<svg width="24" height="24" viewBox="0 0 24 24" fill="none" xmlns="http://www.w3.org/2000/svg">
<g clip-path="url(#clip0_53_5853)">
<mask id="mask0_53_5853" style="mask-type:luminance" maskUnits="userSpaceOnUse" x="0" y="0" width="24" height="24">
<path d="M12 24C18.6274 24 24 18.6274 24 12C24 5.37258 18.6274 0 12 0C5.37258 0 0 5.37258 0 12C0 18.6274 5.37258 24 12 24Z" fill="white"/>
</mask>
<g mask="url(#mask0_53_5853)">
<path d="M0 8.34375L11.9156 7.3125L24 8.34375V9.38906L22.1156 11.925L24 14.6109V15.6562L12.0938 16.7531L0 15.6562V14.6109L1.72031 11.8266L0 9.38906V8.34375Z" fill="#D80027"/>
<path d="M0 0H24V8.34375H0V0Z" fill="#338AF3"/>
<path d="M0 9.38904H24V14.6109H0V9.38904Z" fill="#EEEEEE"/>
<path d="M0 15.6562H24V24H0V15.6562Z" fill="#6DA544"/>
<path d="M5.49375 4.95468C5.49312 4.41974 5.67551 3.90069 6.01062 3.48372C6.34573 3.06675 6.81339 2.77697 7.33593 2.66249C7.17108 2.62739 7.00292 2.6101 6.83437 2.61093C6.50846 2.61601 6.18719 2.68902 5.89109 2.82529C5.595 2.96156 5.33058 3.1581 5.11473 3.40234C4.89888 3.64658 4.73635 3.93316 4.63752 4.24376C4.53869 4.55437 4.50574 4.88218 4.54076 5.20624C4.57579 5.53031 4.67802 5.8435 4.84093 6.12582C5.00385 6.40814 5.22386 6.65337 5.48691 6.84585C5.74995 7.03833 6.05026 7.17383 6.36864 7.24369C6.68701 7.31354 7.01646 7.31622 7.33593 7.25155C6.28125 7.01718 5.49375 6.07968 5.49375 4.95468ZM8.72812 6.02343L8.88281 6.51093H9.39843L8.97656 6.81562L9.14062 7.30312L8.71875 7.00312L8.31093 7.30312L8.47031 6.81562L8.04843 6.51093H8.56406L8.72812 6.02343ZM10.3687 6.02343L10.5281 6.51093H11.0437L10.6219 6.81562L10.7812 7.30312L10.3687 7.00312L9.94687 7.30312L10.1109 6.81562L9.68906 6.51093H10.2047L10.3687 6.02343ZM12.0094 6.02343L12.1687 6.51093H12.6844L12.2625 6.81562L12.4266 7.30312L12.0047 7.00312L11.5922 7.30312L11.7516 6.81562L11.3297 6.51093H11.8453L12.0094 6.02343ZM13.65 6.02343L13.8094 6.51093H14.325L13.9031 6.81562L14.0672 7.30312L13.6453 7.00312L13.2328 7.30312L13.3922 6.81562L12.9703 6.51093H13.4859L13.65 6.02343ZM15.2906 6.02343L15.45 6.51093H15.9656L15.5437 6.81562L15.7078 7.30312L15.2859 7.00312L14.8734 7.30312L15.0328 6.81562L14.6203 6.51093H15.1359L15.2906 6.02343ZM10.3687 4.31718L10.5281 4.80468H11.0437L10.6219 5.10937L10.7812 5.59687L10.3687 5.29218L9.94687 5.59687L10.1109 5.10937L9.68906 4.80468H10.2047L10.3687 4.31718ZM12.0094 4.31718L12.1687 4.80468H12.6844L12.2625 5.10937L12.4266 5.59687L12.0047 5.29218L11.5922 5.59687L11.7516 5.10937L11.3297 4.80468H11.8453L12.0094 4.31718ZM13.65 4.31718L13.8094 4.80468H14.325L13.9031 5.10937L14.0672 5.59687L13.6453 5.29218L13.2328 5.59687L13.3922 5.10937L12.9703 4.80468H13.4859L13.65 4.31718ZM15.2906 4.31718L15.45 4.80468H15.9656L15.5437 5.10937L15.7078 5.59687L15.2859 5.29218L14.8734 5.59687L15.0328 5.10937L14.6203 4.80468H15.1359L15.2906 4.31718ZM12.0094 2.61093L12.1687 3.09843H12.6844L12.2625 3.39843L12.4312 3.89062L12.0094 3.58593L11.5969 3.89062L11.7562 3.39843L11.3344 3.09843H11.85L12.0094 2.61093ZM13.65 2.61093L13.8094 3.09843H14.325L13.9031 3.39843L14.0719 3.89062L13.65 3.58593L13.2375 3.89062L13.3969 3.39843L12.975 3.09843H13.4906L13.65 2.61093ZM15.2906 2.61093L15.45 3.09843H15.9656L15.5437 3.39843L15.7125 3.89062L15.2906 3.58593L14.8781 3.89062L15.0375 3.39843L14.625 3.09843H15.1406L15.2906 2.61093Z" fill="#EEEEEE"/>
</g>
</g>
<defs>
<clipPath id="clip0_53_5853">
<rect width="24" height="24" fill="white"/>
</clipPath>
</defs>
</svg>
