<svg width="150" height="50" viewBox="0 0 150 50" fill="none" xmlns="http://www.w3.org/2000/svg">
<g clip-path="url(#clip0_108_7072)">
<path d="M137.668 0.0001625H11.9184C11.46 0.0001625 11.0071 0.0001625 10.5499 0.0026625C10.1672 0.0051625 9.78761 0.012425 9.40125 0.0185375C8.56189 0.0284148 7.72451 0.102258 6.89637 0.239425C6.06941 0.379578 5.26834 0.643807 4.52028 1.02318C3.77312 1.40575 3.09043 1.90287 2.49696 2.4965C1.90038 3.08846 1.40308 3.77268 1.02419 4.52286C0.64425 5.27155 0.380801 6.07384 0.242938 6.90201C0.103764 7.72914 0.028873 8.56581 0.0189375 9.40451C0.0073375 9.78776 0.0061125 10.1723 0 10.5556V39.4484C0.0061125 39.8365 0.0073375 40.2125 0.0189375 40.6008C0.028876 41.4394 0.103767 42.2761 0.242938 43.1032C0.38042 43.9318 0.643885 44.7346 1.02419 45.4835C1.40291 46.2313 1.90028 46.9127 2.49696 47.5014C3.08818 48.0977 3.77132 48.5951 4.52028 48.9748C5.26833 49.3552 6.06931 49.621 6.89637 49.7633C7.72465 49.8994 8.56195 49.9732 9.40125 49.9843C9.78761 49.9928 10.1672 49.9977 10.5499 49.9977C11.0071 50.0002 11.46 50.0002 11.9184 50.0002H137.668C138.118 50.0002 138.574 50.0002 139.023 49.9977C139.404 49.9977 139.795 49.9928 140.176 49.9843C141.014 49.9738 141.849 49.8999 142.676 49.7633C143.506 49.62 144.309 49.3542 145.061 48.9748C145.809 48.5949 146.492 48.0975 147.083 47.5014C147.678 46.9104 148.176 46.2295 148.56 45.4835C148.937 44.734 149.198 43.9313 149.333 43.1032C149.473 42.276 149.55 41.4395 149.565 40.6008C149.57 40.2125 149.57 39.8365 149.57 39.4484C149.58 38.9943 149.58 38.5427 149.58 38.0812V11.9203C149.58 11.4626 149.58 11.0085 149.57 10.5556C149.57 10.1723 149.57 9.78776 149.565 9.40446C149.55 8.56569 149.473 7.72921 149.333 6.90196C149.198 6.07426 148.937 5.27204 148.56 4.52281C147.788 3.01916 146.564 1.79519 145.061 1.02306C144.309 0.644622 143.505 0.380463 142.676 0.239312C141.849 0.101541 141.014 0.0276722 140.176 0.0183625C139.795 0.0122625 139.404 0.0049375 139.023 0.0025C138.574 0 138.118 0.0001625 137.668 0.0001625Z" fill="#9195A1"/>
<path d="M10.5556 48.9063C10.1747 48.9063 9.8031 48.9014 9.42523 48.8929C8.64246 48.8827 7.86152 48.8145 7.08881 48.689C6.3683 48.5649 5.67031 48.3341 5.01788 48.0041C4.37144 47.6769 3.78182 47.2478 3.27163 46.7334C2.75406 46.225 2.32315 45.6353 1.996 44.9878C1.66523 44.336 1.43632 43.6374 1.31725 42.9163C1.18865 42.1414 1.11908 41.3579 1.10912 40.5725C1.1012 40.3089 1.09082 39.4311 1.09082 39.4311V10.5554C1.09082 10.5554 1.10187 9.69116 1.10918 9.43725C1.11872 8.6531 1.18789 7.87082 1.3161 7.09716C1.43539 6.37406 1.66448 5.67344 1.99542 5.01954C2.32138 4.37243 2.74989 3.78233 3.26435 3.2721C3.77822 2.75703 4.36972 2.32576 5.01727 1.99401C5.6682 1.66512 6.36486 1.43592 7.08392 1.31409C7.85917 1.1873 8.64282 1.11875 9.42831 1.10901L10.5562 1.09375H139.017L140.158 1.10963C140.937 1.11887 141.713 1.18681 142.481 1.31286C143.208 1.43622 143.912 1.66702 144.57 1.99768C145.867 2.66623 146.923 3.72395 147.589 5.02259C147.914 5.67197 148.14 6.36688 148.258 7.08374C148.387 7.86374 148.46 8.65217 148.475 9.44275C148.479 9.79675 148.479 10.177 148.479 10.5554C148.488 11.0242 148.488 11.4703 148.488 11.9202V38.081C148.488 38.5351 148.488 38.9783 148.479 39.425C148.479 39.8315 148.479 40.2039 148.474 40.5871C148.459 41.3636 148.388 42.138 148.26 42.904C148.143 43.6303 147.916 44.3344 147.585 44.9915C147.256 45.632 146.827 46.2166 146.316 46.7236C145.805 47.2409 145.214 47.6724 144.566 48.0018C143.91 48.3342 143.207 48.5659 142.481 48.689C141.709 48.8152 140.928 48.8834 140.145 48.8929C139.779 48.9014 139.395 48.9063 139.023 48.9063L137.668 48.9088L10.5556 48.9063Z" fill="white"/>
<path d="M31.2453 24.8619C31.2593 23.7769 31.5475 22.7131 32.0831 21.7695C32.6186 20.8258 33.3842 20.033 34.3085 19.4647C33.7213 18.6261 32.9467 17.936 32.0461 17.4491C31.1455 16.9622 30.1438 16.692 29.1206 16.66C26.9378 16.4309 24.8216 17.9662 23.7093 17.9662C22.5755 17.9662 20.8629 16.6828 19.0187 16.7207C17.8259 16.7593 16.6633 17.1061 15.6444 17.7275C14.6254 18.349 13.7849 19.2237 13.2045 20.2666C10.6906 24.6191 12.5658 31.0158 14.9739 34.5341C16.1787 36.2569 17.5869 38.1813 19.4294 38.113C21.2324 38.0382 21.9058 36.9633 24.0821 36.9633C26.2383 36.9633 26.8701 38.113 28.75 38.0696C30.6847 38.0382 31.9036 36.3392 33.0662 34.6001C33.9319 33.3726 34.598 32.0159 35.04 30.5802C33.9159 30.1048 32.9567 29.3091 32.2819 28.2922C31.6071 27.2753 31.2466 26.0823 31.2453 24.8619Z" fill="black"/>
<path d="M27.6947 14.346C28.7496 13.0796 29.2693 11.4519 29.1434 9.80859C27.5318 9.97786 26.0431 10.7481 24.974 11.9659C24.4513 12.5608 24.0509 13.2529 23.7958 14.0026C23.5407 14.7523 23.4359 15.545 23.4873 16.3352C24.2934 16.3435 25.0909 16.1688 25.8197 15.8242C26.5485 15.4797 27.1896 14.9742 27.6947 14.346Z" fill="black"/>
<path d="M52.877 33.9246H46.9602L45.5393 38.1202H43.0332L48.6375 22.5977H51.2412L56.8455 38.1202H54.2966L52.877 33.9246ZM47.573 31.9886H52.263L49.951 25.1795H49.8862L47.573 31.9886Z" fill="black"/>
<path d="M68.9485 32.4623C68.9485 35.9792 67.0662 38.2387 64.2256 38.2387C63.5061 38.2763 62.7904 38.1106 62.1607 37.7604C61.5309 37.4102 61.0125 36.8898 60.6648 36.2587H60.6111V41.8641H58.2881V26.8031H60.5366V28.6854H60.5793C60.943 28.0574 61.4702 27.5396 62.1047 27.1873C62.7393 26.835 63.4575 26.6613 64.1829 26.6847C67.0552 26.6847 68.9485 28.9552 68.9485 32.4623ZM66.5608 32.4623C66.5608 30.1711 65.3767 28.6647 63.5701 28.6647C61.7952 28.6647 60.6013 30.2028 60.6013 32.4623C60.6013 34.7426 61.7952 36.2697 63.5701 36.2697C65.3767 36.2697 66.5608 34.7743 66.5608 32.4623Z" fill="black"/>
<path d="M81.4052 32.4623C81.4052 35.9792 79.5222 38.2387 76.6817 38.2387C75.9621 38.2763 75.2465 38.1106 74.6167 37.7604C73.987 37.4102 73.4686 36.8898 73.1209 36.2587H73.0671V41.8641H70.7441V26.8031H72.9927V28.6854H73.0354C73.3991 28.0574 73.9263 27.5396 74.5608 27.1873C75.1953 26.835 75.9135 26.6613 76.6389 26.6847C79.5113 26.6847 81.4052 28.9552 81.4052 32.4623ZM79.0169 32.4623C79.0169 30.1711 77.8328 28.6647 76.0262 28.6647C74.2513 28.6647 73.0574 30.2028 73.0574 32.4623C73.0574 34.7426 74.2513 36.2697 76.0262 36.2697C77.8328 36.2697 79.0169 34.7743 79.0169 32.4623Z" fill="black"/>
<path d="M89.6368 33.7952C89.8089 35.3345 91.3043 36.3452 93.3477 36.3452C95.3057 36.3452 96.7144 35.3345 96.7144 33.9465C96.7144 32.7417 95.8648 32.0203 93.8531 31.5259L91.8414 31.0413C88.991 30.3528 87.6678 29.0198 87.6678 26.8567C87.6678 24.1785 90.0018 22.3389 93.3148 22.3389C96.596 22.3389 98.8446 24.1785 98.9202 26.8567H96.5752C96.4349 25.3076 95.1543 24.3726 93.283 24.3726C91.4117 24.3726 90.1312 25.3186 90.1312 26.6956C90.1312 27.793 90.949 28.4387 92.9498 28.9331L94.66 29.353C97.8448 30.1062 99.1668 31.3855 99.1668 33.656C99.1668 36.56 96.8548 38.3789 93.1755 38.3789C89.7331 38.3789 87.4089 36.6027 87.2588 33.7951L89.6368 33.7952Z" fill="black"/>
<path d="M104.183 24.125V26.8032H106.335V28.6428H104.183V34.8818C104.183 35.8511 104.614 36.3027 105.56 36.3027C105.815 36.2983 106.07 36.2803 106.324 36.249V38.0776C105.898 38.1571 105.466 38.1931 105.033 38.185C102.742 38.185 101.849 37.3244 101.849 35.1296V28.6428H100.203V26.8032H101.849V24.125H104.183Z" fill="black"/>
<path d="M107.579 32.4624C107.579 28.9016 109.676 26.6641 112.947 26.6641C116.228 26.6641 118.315 28.9016 118.315 32.4624C118.315 36.033 116.239 38.2607 112.947 38.2607C109.655 38.2607 107.579 36.033 107.579 32.4624ZM115.948 32.4624C115.948 30.0198 114.829 28.5781 112.947 28.5781C111.064 28.5781 109.945 30.0308 109.945 32.4624C109.945 34.9148 111.064 36.3455 112.947 36.3455C114.829 36.3455 115.948 34.9148 115.948 32.4624Z" fill="black"/>
<path d="M120.231 26.803H122.447V28.7293H122.501C122.651 28.1277 123.003 27.596 123.499 27.2236C123.995 26.8513 124.603 26.6609 125.223 26.6846C125.491 26.6836 125.758 26.7127 126.019 26.7713V28.9441C125.681 28.8408 125.328 28.7934 124.975 28.8037C124.638 28.79 124.301 28.8495 123.989 28.9782C123.677 29.1068 123.396 29.3014 123.166 29.5488C122.936 29.7962 122.762 30.0904 122.657 30.4112C122.551 30.732 122.516 31.0719 122.554 31.4075V38.1201H120.231L120.231 26.803Z" fill="black"/>
<path d="M136.729 34.7964C136.417 36.8508 134.416 38.2607 131.856 38.2607C128.564 38.2607 126.521 36.0549 126.521 32.5161C126.521 28.9663 128.575 26.6641 131.759 26.6641C134.89 26.6641 136.859 28.8149 136.859 32.2463V33.0422H128.865V33.1826C128.829 33.5991 128.881 34.0187 129.018 34.4135C129.156 34.8083 129.376 35.1693 129.664 35.4725C129.952 35.7756 130.301 36.0141 130.689 36.172C131.076 36.3299 131.492 36.4036 131.91 36.3882C132.459 36.4396 133.01 36.3125 133.481 36.0257C133.952 35.7389 134.317 35.3077 134.523 34.7964L136.729 34.7964ZM128.876 31.4187H134.534C134.555 31.0442 134.498 30.6694 134.368 30.3179C134.237 29.9664 134.035 29.6457 133.774 29.376C133.513 29.1063 133.2 28.8934 132.853 28.7506C132.506 28.6079 132.134 28.5383 131.759 28.5464C131.38 28.5441 131.005 28.6168 130.655 28.7602C130.305 28.9037 129.987 29.115 129.719 29.382C129.451 29.6491 129.239 29.9665 129.094 30.3161C128.949 30.6657 128.875 31.0404 128.876 31.4187Z" fill="black"/>
<path d="M45.9226 14.0667H46.9199C47.0916 14.0881 47.2658 14.0737 47.4317 14.0244C47.5975 13.9751 47.7513 13.892 47.8835 13.7803C48.0156 13.6686 48.1231 13.5307 48.1993 13.3754C48.2755 13.22 48.3187 13.0506 48.3262 12.8778C48.3262 12.1899 47.8086 11.7456 46.9309 11.7456C46.755 11.721 46.576 11.7319 46.4044 11.7777C46.2328 11.8234 46.0721 11.9031 45.9318 12.012C45.7915 12.1209 45.6744 12.2568 45.5875 12.4117C45.5006 12.5666 45.4456 12.7373 45.4258 12.9138H44.3308C44.3496 12.5934 44.4342 12.2803 44.5793 11.9941C44.7244 11.7078 44.9268 11.4545 45.1741 11.2499C45.4213 11.0452 45.708 10.8937 46.0163 10.8047C46.3247 10.7156 46.648 10.691 46.9663 10.7324C48.4348 10.7324 49.4688 11.5545 49.4688 12.738C49.4722 13.1345 49.3396 13.5201 49.093 13.8306C48.8464 14.1411 48.5007 14.3576 48.1138 14.4439V14.5318C48.5725 14.5522 49.0046 14.7533 49.3154 15.0913C49.6263 15.4293 49.7907 15.8766 49.7727 16.3354C49.7388 16.6653 49.6393 16.985 49.4802 17.276C49.321 17.5669 49.1054 17.8231 48.846 18.0297C48.5865 18.2362 48.2885 18.3888 47.9693 18.4787C47.6501 18.5685 47.3161 18.5937 46.9871 18.5528C46.6573 18.5978 46.3219 18.5759 46.0007 18.4884C45.6796 18.401 45.3794 18.2498 45.118 18.0438C44.8565 17.8379 44.6392 17.5814 44.479 17.2896C44.3188 16.9979 44.219 16.6769 44.1855 16.3458H45.2976C45.3647 17.0593 46.0203 17.5195 46.9871 17.5195C47.9538 17.5195 48.585 17.0026 48.585 16.2738C48.585 15.5347 47.9905 15.0794 46.9517 15.0794H45.9226V14.0667Z" fill="black"/>
<path d="M51.0361 16.7803C51.0361 15.7671 51.7917 15.183 53.1296 15.1L54.6543 15.0121V14.5262C54.6543 13.9318 54.2624 13.5961 53.502 13.5961C52.8818 13.5961 52.4534 13.8237 52.3289 14.2217H51.2534C51.3669 13.2549 52.2776 12.6348 53.5544 12.6348C54.9656 12.6348 55.7615 13.3373 55.7615 14.5262V18.3721H54.6909V17.5811H54.603C54.4246 17.8648 54.1741 18.0961 53.8771 18.2514C53.5801 18.4066 53.2472 18.4803 52.9124 18.4648C52.6761 18.4894 52.4372 18.4642 52.2113 18.3908C51.9853 18.3174 51.7773 18.1975 51.6005 18.0388C51.4237 17.8801 51.2822 17.6861 51.185 17.4693C51.0878 17.2526 51.0371 17.0178 51.0361 16.7803ZM54.6543 16.2993V15.8287L53.2797 15.9166C52.5046 15.9685 52.153 16.2322 52.153 16.7284C52.153 17.235 52.5925 17.5298 53.1968 17.5298C53.3738 17.5477 53.5527 17.5298 53.7227 17.4772C53.8927 17.4246 54.0504 17.3383 54.1864 17.2235C54.3224 17.1087 54.4339 16.9677 54.5143 16.809C54.5946 16.6502 54.6423 16.4769 54.6543 16.2993Z" fill="black"/>
<path d="M58.7095 13.6787V18.3723H57.5986V12.7437H61.3047V13.6787L58.7095 13.6787Z" fill="black"/>
<path d="M68.0376 15.5552C68.0376 17.3436 67.1331 18.4648 65.7122 18.4648C65.3634 18.4886 65.015 18.4123 64.7081 18.2448C64.4013 18.0773 64.1486 17.8256 63.98 17.5194H63.8921V20.2434H62.7812V12.7434H63.8506V13.6736H63.9336C64.1053 13.3566 64.3612 13.0933 64.6731 12.9127C64.9851 12.732 65.3408 12.6411 65.7012 12.65C67.1331 12.65 68.0376 13.7663 68.0376 15.5552ZM66.895 15.5552C66.895 14.3663 66.3323 13.6479 65.3911 13.6479C64.4561 13.6479 63.8714 14.3815 63.8714 15.5601C63.8714 16.7332 64.4561 17.4675 65.3862 17.4675C66.3323 17.4675 66.895 16.7491 66.895 15.5552Z" fill="black"/>
<path d="M69.5162 20.3883V19.4319C69.6364 19.4472 69.7575 19.4541 69.8787 19.4526C70.1153 19.4702 70.3501 19.3997 70.538 19.2547C70.7259 19.1097 70.8536 18.9005 70.8967 18.6671L70.9797 18.3931L68.9424 12.7437H70.1521L71.5633 17.2145H71.6512L73.0574 12.7437H74.2354L72.137 18.6049C71.6561 19.9745 71.1238 20.414 69.9764 20.414C69.8836 20.4139 69.6199 20.4036 69.5162 20.3883Z" fill="black"/>
<path d="M75.1016 16.7747H76.2075C76.3162 17.2709 76.7813 17.5297 77.4319 17.5297C78.1716 17.5297 78.6257 17.2037 78.6257 16.6972C78.6257 16.1546 78.218 15.8958 77.4319 15.8958H76.5896V15.0327H77.4172C78.0886 15.0327 78.4304 14.7746 78.4304 14.304C78.4304 13.8908 78.0996 13.5752 77.4172 13.5752C76.7959 13.5752 76.3418 13.8389 76.2697 14.2833H75.1992C75.2793 13.7727 75.5565 13.3139 75.9713 13.0056C76.3861 12.6973 76.9053 12.5641 77.4172 12.6347C78.7551 12.6347 79.5205 13.2396 79.5205 14.1905C79.5268 14.4553 79.4419 14.7142 79.2802 14.924C79.1184 15.1337 78.8895 15.2816 78.6318 15.3428V15.4307C78.9386 15.4703 79.2202 15.6211 79.4232 15.8546C79.6262 16.088 79.7364 16.3879 79.7329 16.6972C79.7329 17.7672 78.8223 18.4751 77.4319 18.4751C76.2026 18.4751 75.2041 17.9118 75.1016 16.7747Z" fill="black"/>
<path d="M81.332 18.3718V12.7432H82.4331V16.6146H82.521L85.115 12.7432H86.2161V18.3718H85.115V14.4796H85.032L82.4331 18.3719L81.332 18.3718Z" fill="black"/>
<path d="M92.2821 13.6787H90.5096V18.3723H89.3975V13.6787H87.625V12.7437H92.2821V13.6787Z" fill="black"/>
<path d="M98.2655 16.8524C98.1141 17.3668 97.7868 17.8117 97.3408 18.1093C96.8948 18.407 96.3584 18.5384 95.8253 18.4808C95.4544 18.4906 95.0859 18.4196 94.7453 18.2727C94.4047 18.1258 94.1001 17.9065 93.8527 17.6301C93.6053 17.3536 93.421 17.0267 93.3127 16.6719C93.2043 16.3171 93.1745 15.943 93.2252 15.5755C93.1758 15.2069 93.2062 14.832 93.3143 14.4762C93.4224 14.1203 93.6057 13.7919 93.8518 13.513C94.0979 13.2342 94.401 13.0115 94.7406 12.86C95.0803 12.7085 95.4485 12.6317 95.8204 12.6349C97.3866 12.6349 98.3326 13.7049 98.3326 15.4724V15.86H94.358V15.9222C94.3404 16.1288 94.3662 16.3368 94.4338 16.5329C94.5014 16.7289 94.6092 16.9086 94.7504 17.0605C94.8916 17.2123 95.063 17.333 95.2535 17.4147C95.4441 17.4963 95.6497 17.5372 95.857 17.5347C96.1226 17.5665 96.3915 17.5186 96.6298 17.3971C96.868 17.2756 97.0647 17.086 97.1949 16.8524L98.2655 16.8524ZM94.358 15.0384H97.1998C97.2138 14.8496 97.1882 14.66 97.1246 14.4816C97.061 14.3033 96.9608 14.1402 96.8304 14.0029C96.7001 13.8656 96.5424 13.7571 96.3676 13.6843C96.1929 13.6115 96.0048 13.5761 95.8155 13.5803C95.6233 13.5777 95.4326 13.6136 95.2545 13.686C95.0764 13.7583 94.9147 13.8657 94.7788 14.0016C94.643 14.1375 94.5357 14.2993 94.4634 14.4774C94.3912 14.6555 94.3553 14.8463 94.358 15.0384Z" fill="black"/>
<path d="M102.976 12.7437H105.513C106.615 12.7437 107.26 13.3015 107.26 14.1749C107.262 14.452 107.168 14.7214 106.995 14.9378C106.822 15.1542 106.58 15.3046 106.309 15.3639V15.4518C106.638 15.4725 106.946 15.6188 107.17 15.8602C107.394 16.1017 107.517 16.42 107.513 16.7494C107.513 17.7314 106.774 18.3723 105.539 18.3723H102.976V12.7437ZM104.077 13.5963V15.0538H105.178C105.849 15.0538 106.17 14.7956 106.17 14.3196C106.17 13.8807 105.891 13.5963 105.301 13.5963L104.077 13.5963ZM104.077 15.8705V17.5197H105.394C106.051 17.5197 106.402 17.2298 106.402 16.6975C106.402 16.1342 106.004 15.8705 105.255 15.8705L104.077 15.8705Z" fill="black"/>
</g>
<defs>
<clipPath id="clip0_108_7072">
<rect width="149.58" height="50" fill="white"/>
</clipPath>
</defs>
</svg>
