<svg width="169" height="50" viewBox="0 0 169 50" fill="none" xmlns="http://www.w3.org/2000/svg">
<g clip-path="url(#clip0_108_7073)">
<path d="M156.837 0H11.9125C11.4625 0 11.0125 0 10.55 0C10.1625 0 9.7875 0 9.4 0.0125C8.5625 0.0125 7.725 0.1 6.9 0.2375C6.075 0.375 5.275 0.6375 4.525 1.025C3.775 1.4125 3.1 1.9 2.5 2.5C1.9 3.0875 1.4 3.775 1.025 4.525C0.65 5.275 0.3875 6.075 0.25 6.9C0.1 7.725 0.025 8.5625 0.025 9.4C0.025 9.7875 0.0125 10.1625 0 10.55V39.4375C0 39.825 0 40.2 0.025 40.5875C0.025 41.425 0.1125 42.2625 0.25 43.0875C0.3875 43.9125 0.65 44.725 1.0375 45.4625C1.4125 46.2125 1.9125 46.8875 2.5125 47.475C3.1 48.075 3.7875 48.5625 4.5375 48.95C5.2875 49.325 6.0875 49.6 6.9125 49.7375C7.7375 49.875 8.575 49.95 9.4125 49.9625C9.8 49.9625 10.175 49.975 10.5625 49.975C11.025 49.975 11.475 49.975 11.925 49.975H156.85C157.3 49.975 157.75 49.975 158.2 49.975C158.575 49.975 158.975 49.975 159.35 49.9625C160.188 49.9625 161.025 49.875 161.85 49.7375C162.675 49.6 163.488 49.325 164.238 48.95C164.988 48.575 165.662 48.075 166.262 47.475C166.862 46.8875 167.35 46.2 167.738 45.4625C168.113 44.7125 168.375 43.9125 168.512 43.0875C168.65 42.2625 168.725 41.425 168.75 40.5875C168.75 40.2 168.75 39.825 168.75 39.4375C168.75 38.9875 168.75 38.5375 168.75 38.075V11.925C168.75 11.4625 168.75 11.0125 168.75 10.5625C168.75 10.175 168.75 9.8 168.75 9.4125C168.738 8.575 168.662 7.7375 168.512 6.9125C168.375 6.0875 168.113 5.2875 167.738 4.5375C166.963 3.0375 165.738 1.8125 164.238 1.0375C163.488 0.6625 162.688 0.4 161.85 0.25C161.025 0.1125 160.188 0.0375 159.35 0.025C158.975 0.025 158.575 0.0125 158.2 0.0125C157.75 0.0125 157.3 0.0125 156.85 0.0125L156.837 0Z" fill="#9195A1"/>
<path d="M10.5504 48.8998C10.1754 48.8998 9.80039 48.8998 9.42539 48.8873C8.63789 48.8873 7.86289 48.8123 7.08789 48.6873C6.36289 48.5623 5.67539 48.3373 5.01289 47.9998C4.36289 47.6748 3.77539 47.2373 3.26289 46.7248C2.75039 46.2123 2.31289 45.6248 1.98789 44.9748C1.66289 44.3248 1.42539 43.6248 1.31289 42.8998C1.18789 42.1248 1.11289 41.3373 1.10039 40.5498C1.10039 40.2873 1.08789 39.4123 1.08789 39.4123V10.5498C1.08789 10.5498 1.08789 9.68731 1.10039 9.43731C1.10039 8.64981 1.17539 7.8748 1.31289 7.0998C1.43789 6.3748 1.66289 5.6748 1.98789 5.0248C2.31289 4.3748 2.73789 3.7873 3.26289 3.2748C3.77539 2.7623 4.36289 2.3248 5.01289 1.9998C5.66289 1.6748 6.36289 1.4373 7.07539 1.3248C7.85039 1.1998 8.63789 1.1248 9.42539 1.1248H10.5504L158.175 1.1123H159.313C160.088 1.1373 160.863 1.1998 161.638 1.3373C162.363 1.4623 163.063 1.6873 163.725 2.0248C165.025 2.6873 166.075 3.7498 166.738 5.0498C167.063 5.6998 167.288 6.39981 167.413 7.1123C167.538 7.8873 167.613 8.6748 167.625 9.4748C167.625 9.8248 167.625 10.2123 167.625 10.5873C167.625 11.0623 167.625 11.4998 167.625 11.9498V38.1123C167.625 38.5623 167.625 39.0123 167.625 39.4623C167.625 39.8748 167.625 40.2373 167.625 40.6248C167.613 41.3998 167.538 42.1748 167.413 42.9373C167.3 43.6623 167.063 44.3623 166.738 45.0248C166.413 45.6623 165.975 46.2498 165.463 46.7623C164.95 47.2748 164.363 47.7123 163.713 48.0373C163.05 48.3748 162.35 48.5998 161.625 48.7248C160.85 48.8498 160.075 48.9248 159.288 48.9248C158.925 48.9248 158.538 48.9373 158.163 48.9373H156.813H10.5254L10.5504 48.8998Z" fill="white"/>
<path d="M12.5244 12.3623V37.5873L25.1369 24.9748L12.5244 12.3748V12.3623Z" fill="black"/>
<path d="M12.8877 39.0001C13.4752 40.1876 14.7002 41.0126 16.1127 41.0126C16.7752 41.0126 17.4002 40.8376 17.9377 40.5126L17.9752 40.4876L32.3502 32.1876L26.0252 25.8501L12.9002 39.0001H12.8877Z" fill="black"/>
<path d="M26.0248 24.0998L32.3498 17.7873L17.9623 9.43731C17.4248 9.11231 16.7873 8.9248 16.0998 8.9248C14.6748 8.9248 13.4373 9.7623 12.8623 10.9748L13.0248 11.1123L26.0123 24.0998H26.0248Z" fill="black"/>
<path d="M39.3621 21.8626L33.4621 18.4126L33.3621 18.5126L26.9121 24.9626L33.4871 31.5501L39.3621 28.1501C40.4871 27.5376 41.2496 26.3501 41.2496 24.9876C41.2496 23.6251 40.4996 22.4376 39.3746 21.8376L39.3621 21.8626Z" fill="black"/>
<path d="M55.9246 15.4373C55.3996 15.4373 54.9121 15.3123 54.4746 15.0748C54.0371 14.8373 53.6996 14.4873 53.4371 14.0373C53.1746 13.5873 53.0496 13.0748 53.0496 12.4998C53.0496 11.9248 53.1746 11.4123 53.4371 10.9623C53.6871 10.5123 54.0371 10.1748 54.4746 9.92481C54.9121 9.68731 55.3871 9.56231 55.9246 9.56231C56.3496 9.56231 56.7371 9.63731 57.0621 9.79981C57.3871 9.96231 57.6871 10.1998 57.9621 10.5123L58.7996 9.69981C58.0496 8.84981 57.0871 8.4248 55.9121 8.4248C55.1621 8.4248 54.4746 8.59981 53.8496 8.96231C53.2246 9.31231 52.7371 9.81231 52.3871 10.4248C52.0371 11.0498 51.8496 11.7373 51.8496 12.4873C51.8496 13.2373 52.0246 13.9248 52.3871 14.5498C52.7371 15.1748 53.2371 15.6623 53.8496 16.0123C54.4746 16.3623 55.1496 16.5373 55.9121 16.5373C56.5371 16.5373 57.1246 16.4123 57.6496 16.1623C58.1746 15.9123 58.6371 15.5748 59.0121 15.1248L58.1496 14.2998C57.5496 15.0373 56.8121 15.3998 55.9246 15.3998V15.4373Z" fill="black"/>
<path d="M66.2131 8.6748V8.6123H64.7006L61.6006 12.3873H61.5381V8.6123H60.3506V16.3998H61.5381V12.8248H61.6131L64.8131 16.3998H66.3881V16.3373L62.9256 12.5748L66.2131 8.6748Z" fill="black"/>
<path d="M70.0625 8.6123L67.125 16.3998H68.4375L69.15 14.3998H72.325L73.0375 16.3998H74.35L71.4 8.6123H70.0375H70.0625ZM69.55 13.2873L70.425 10.8998L70.7125 10.0123H70.775L71.0625 10.8998L71.9375 13.2873H69.55Z" fill="black"/>
<path d="M78.8752 11.7125C78.4627 12.2 77.9377 12.45 77.3127 12.45C76.8502 12.45 76.4752 12.325 76.2002 12.0625C75.9252 11.8125 75.7877 11.4375 75.7877 10.975V8.625H74.5752V11.175C74.5752 11.6625 74.6877 12.1 74.9002 12.4625C75.1127 12.825 75.4127 13.1 75.8002 13.2875C76.1877 13.475 76.6127 13.575 77.0752 13.575C77.7877 13.575 78.3877 13.3625 78.8752 12.9375V16.4125H80.0627V8.625H78.8752V11.7125Z" fill="black"/>
<path d="M84.0498 8.6123L81.1123 16.3998H82.4248L83.1373 14.3998H86.3123L87.0248 16.3998H88.3373L85.3873 8.6123H84.0248H84.0498ZM83.5373 13.2873L84.4123 10.8998L84.6998 10.0123H84.7623L85.0498 10.8998L85.9248 13.2873H83.5373Z" fill="black"/>
<path d="M88.1875 9.74981H90.375V16.3998H91.575V9.74981H93.75V8.6123H88.1875V9.74981Z" fill="black"/>
<path d="M99.1873 11.6873C98.7748 11.4873 98.3248 11.3873 97.8373 11.3873H96.1873V8.6123H94.9873V16.3998H97.8373C98.3248 16.3998 98.7748 16.2998 99.1873 16.0998C99.5998 15.8998 99.9373 15.6123 100.175 15.2248C100.425 14.8373 100.537 14.3998 100.537 13.8873C100.537 13.3748 100.412 12.9373 100.175 12.5498C99.9248 12.1623 99.5998 11.8748 99.1873 11.6748V11.6873ZM99.1748 14.5623C99.0623 14.7748 98.8873 14.9498 98.6748 15.0748C98.4623 15.1998 98.2123 15.2748 97.9248 15.2748H96.1873V12.4748H97.9248C98.2123 12.4748 98.4623 12.5373 98.6748 12.6748C98.8873 12.8123 99.0623 12.9873 99.1748 13.1998C99.2873 13.4123 99.3498 13.6373 99.3498 13.8748C99.3498 14.1123 99.2873 14.3373 99.1748 14.5498V14.5623Z" fill="black"/>
<path d="M105.588 14.4248H105.525L105.588 12.9248V8.6123H104.4V16.3998H105.7L109.25 10.4873H109.313L109.25 11.9873V16.3998H110.438V8.6123H109.075L105.588 14.4248Z" fill="black"/>
<path d="M116.663 13.025C116.425 12.7 116.125 12.4625 115.763 12.3V12.2375C116.425 11.875 116.75 11.3125 116.75 10.5625C116.75 10.1625 116.65 9.8 116.438 9.475C116.225 9.15 115.938 8.9 115.575 8.7125C115.213 8.525 114.788 8.4375 114.313 8.4375C113.7 8.4375 113.188 8.6 112.788 8.9375C112.388 9.2625 112.1 9.65 111.95 10.075L113 10.5125C113.088 10.25 113.238 10.0125 113.463 9.8125C113.688 9.625 113.963 9.525 114.288 9.525C114.65 9.525 114.95 9.6375 115.2 9.8375C115.438 10.05 115.563 10.3125 115.563 10.6375C115.563 11 115.438 11.2875 115.175 11.5C114.913 11.7125 114.588 11.825 114.2 11.825H113.625V12.875H114.263C114.55 12.875 114.8 12.9375 115.05 13.05C115.288 13.1625 115.475 13.325 115.613 13.525C115.75 13.725 115.825 13.9375 115.825 14.1875C115.825 14.5625 115.688 14.8625 115.4 15.1125C115.113 15.3625 114.775 15.4875 114.375 15.4875C114.013 15.4875 113.688 15.375 113.413 15.1375C113.138 14.9125 112.963 14.5875 112.863 14.1875L111.763 14.625C111.938 15.275 112.275 15.775 112.763 16.1C113.25 16.425 113.788 16.5875 114.363 16.5875C114.863 16.5875 115.3 16.4875 115.7 16.275C116.1 16.0625 116.413 15.7875 116.638 15.425C116.863 15.0625 116.975 14.675 116.975 14.2125C116.975 13.75 116.863 13.3625 116.625 13.05L116.663 13.025Z" fill="black"/>
<path d="M85.1875 27.1751C82.25 27.1751 79.85 29.4126 79.85 32.4876C79.85 35.5626 82.25 37.8001 85.1875 37.8001C88.125 37.8001 90.525 35.5376 90.525 32.4876C90.525 29.4376 88.125 27.1751 85.1875 27.1751ZM85.1875 35.7126C83.575 35.7126 82.1875 34.3876 82.1875 32.4876C82.1875 30.5876 83.575 29.2626 85.1875 29.2626C86.8 29.2626 88.1875 30.5751 88.1875 32.4876C88.1875 34.4001 86.8 35.7126 85.1875 35.7126ZM73.55 27.1751C70.6125 27.1751 68.2125 29.4126 68.2125 32.4876C68.2125 35.5626 70.6125 37.8001 73.55 37.8001C76.4875 37.8001 78.8875 35.5376 78.8875 32.4876C78.8875 29.4376 76.4875 27.1751 73.55 27.1751ZM73.55 35.7126C71.9375 35.7126 70.55 34.3876 70.55 32.4876C70.55 30.5876 71.9375 29.2626 73.55 29.2626C75.1625 29.2626 76.55 30.5751 76.55 32.4876C76.55 34.4001 75.1625 35.7126 73.55 35.7126ZM59.7 28.8001V31.0501H65.1C64.9375 32.3251 64.5125 33.2501 63.875 33.8876C63.0875 34.6751 61.8625 35.5376 59.7 35.5376C56.375 35.5376 53.775 32.8626 53.775 29.5376C53.775 26.2126 56.375 23.5376 59.7 23.5376C61.4875 23.5376 62.8 24.2376 63.7625 25.1501L65.35 23.5626C64 22.2751 62.2125 21.2876 59.6875 21.2876C55.1375 21.2876 51.3125 25.0001 51.3125 29.5501C51.3125 34.1001 55.1375 37.8126 59.6875 37.8126C62.1375 37.8126 64 37.0001 65.45 35.5001C66.9375 34.0126 67.4 31.9126 67.4 30.2251C67.4 29.7001 67.3625 29.2251 67.275 28.8126H59.675L59.7 28.8001ZM116.338 30.5501C115.887 29.3626 114.55 27.1626 111.788 27.1626C109.025 27.1626 106.775 29.3126 106.775 32.4751C106.775 35.4501 109.025 37.7876 112.05 37.7876C114.487 37.7876 115.9 36.3001 116.475 35.4251L114.663 34.2126C114.063 35.1001 113.237 35.6876 112.05 35.6876C110.862 35.6876 110.013 35.1501 109.475 34.0751L116.587 31.1376L116.35 30.5376L116.338 30.5501ZM109.087 32.3251C109.025 30.2751 110.675 29.2251 111.862 29.2251C112.787 29.2251 113.575 29.6876 113.838 30.3501L109.087 32.3251ZM103.313 37.4751H105.65V21.8501H103.313V37.4751ZM99.4875 28.3501H99.4125C98.8875 27.7251 97.8875 27.1626 96.6125 27.1626C93.95 27.1626 91.5125 29.5001 91.5125 32.5001C91.5125 35.5001 93.95 37.8001 96.6125 37.8001C97.8875 37.8001 98.8875 37.2376 99.4125 36.5876H99.4875V37.3501C99.4875 39.3876 98.4 40.4751 96.65 40.4751C95.225 40.4751 94.3375 39.4501 93.975 38.5876L91.9375 39.4376C92.525 40.8501 94.075 42.5751 96.65 42.5751C99.3875 42.5751 101.7 40.9626 101.7 37.0376V27.4876H99.4875V28.3501ZM96.8125 35.7001C95.2 35.7001 93.85 34.3501 93.85 32.5001C93.85 30.6501 95.2 29.2626 96.8125 29.2626C98.425 29.2626 99.65 30.6376 99.65 32.5001C99.65 34.3626 98.4 35.7001 96.8125 35.7001ZM127.288 21.8501H121.7V37.4751H124.025V31.5501H127.288C129.875 31.5501 132.413 29.6751 132.413 26.7001C132.413 23.7251 129.875 21.8501 127.288 21.8501ZM127.35 29.3876H124.038V24.0251H127.35C129.1 24.0251 130.088 25.4751 130.088 26.7001C130.088 27.9251 129.1 29.3751 127.35 29.3751M141.762 27.1251C140.075 27.1251 138.325 27.8751 137.6 29.5126L139.675 30.3751C140.113 29.5126 140.937 29.2251 141.812 29.2251C143.025 29.2251 144.25 29.9501 144.262 31.2376V31.4001C143.838 31.1626 142.938 30.8001 141.825 30.8001C139.6 30.8001 137.325 32.0251 137.325 34.3251C137.325 36.4126 139.163 37.7626 141.2 37.7626C142.775 37.7626 143.637 37.0626 144.175 36.2376H144.25V37.4501H146.5V31.4626C146.5 28.6876 144.425 27.1376 141.75 27.1376M141.462 35.7001C140.7 35.7001 139.625 35.3126 139.625 34.3751C139.625 33.1626 140.95 32.7126 142.1 32.7126C143.125 32.7126 143.612 32.9376 144.237 33.2376C144.062 34.6876 142.812 35.7126 141.462 35.7126M154.688 27.4876L152.012 34.2626H151.938L149.162 27.4876H146.65L150.813 36.9626L148.438 42.2251H150.875L157.287 27.4876H154.688ZM133.675 37.4876H136.012V21.8626H133.675V37.4876Z" fill="black"/>
</g>
<defs>
<clipPath id="clip0_108_7073">
<rect width="168.75" height="50" fill="white"/>
</clipPath>
</defs>
</svg>
